# xmcd
#
# Track frame offsets:
# 150
# 22075
# 37389
# 46045
# 62563
# 75061
# 85492
# 94980
# 104328
# 125453
# 138277
# 147705
# 161951
# 171768
# 183732
# 196943
# 211765
# 224571
# 233951
# 243761
# 255875
# 269029
# 279807
# 302309
# 312022
# 322759
#
# Disc length: 4424 seconds
#
#
# Revision: 0
# Processed by: cddbd v1.5.2PL0 Copyright (c) Steve Scherf et al.
# Submitted via: FreeRIP 2.951 
#
DISCID=6d11461a
DTITLE=diversos - Bem Brasil-Serie internacional vol 2
DYEAR=1900
DGENRE=Blues
TTITLE0=Sirter Sledge-Frankie
TTITLE1=Osibisa-Live whos got the paper
TTITLE2=Ray Charles-Hit the rock jack
TTITLE3=Paul Mc Cartney-Check machine
TTITLE4=Jachson Five-Little bitty pretty one
TTITLE5=Frankie Lymon-Why do fools fallin love
TTITLE6=Huey Lewis-Little bitty pretty one
TTITLE7=Jackie Wilson-Thats why i love you so
TTITLE8=Mr Soul-Express self
TTITLE9=Ray Charles-Heart Braker
TTITLE10=Claude Bernie-The lady is a tramp
TTITLE11=Trini Lopes-Dont let the sun cath you cry
TTITLE12=Richard Antony-Too late to worry
TTITLE13=Frankie Lymon-Little bitty pretty one
TTITLE14=Ottis Redding-Lovers question
TTITLE15=Donnie Hebert-Where did our love go
TTITLE16=Bolao e seus Rockets-Midnighter
TTITLE17=Perez Prado-Mambo 8
TTITLE18=Ed Kennedy-Mahna mahna
TTITLE19=Quince Jones-Soul bossa nova
TTITLE20=Ray Charles-Rock house
TTITLE21=Floy Cramer-Lets go
TTITLE22=Herb Alpert-Pao de açucar
TTITLE23=Perez Prado-Mambo 5
TTITLE24=Bert Kaempfert-African beat
TTITLE25=Al Hirt-Sugar lips
EXTD=
EXTT0=
EXTT1=
EXTT2=
EXTT3=
EXTT4=
EXTT5=
EXTT6=
EXTT7=
EXTT8=
EXTT9=
EXTT10=
EXTT11=
EXTT12=
EXTT13=
EXTT14=
EXTT15=
EXTT16=
EXTT17=
EXTT18=
EXTT19=
EXTT20=
EXTT21=
EXTT22=
EXTT23=
EXTT24=
EXTT25=
PLAYORDER=
